<svg width="5998" height="3898" viewBox="0 0 5998 3898" fill="none" xmlns="http://www.w3.org/2000/svg">
<path d="M4.26465 3C1289.12 202.979 3070.85 2475.92 2906.42 3266.29C2798.6 3784.42 1535.4 3772.79 1190.29 3866.23C719.651 3993.49 1610.78 3517.09 1792.28 2966.33C2007.92 2311.85 1680.6 591.302 2718.99 893.816C3625.22 1157.97 3821.45 2013.52 4471.07 1993.7C5058.6 1975.52 5516.3 1257.41 5809.84 657.477" stroke="#F000FF" stroke-width="5" stroke-miterlimit="10"/>
<path d="M4.17578 55.4492C1235.12 278.426 2949.19 2479.65 2812.17 3236.93C2722.32 3733.06 1525.97 3716.52 1206.64 3800.51C763.948 3916.77 1617.07 3458.91 1797.04 2930.51C2012.68 2296.94 1715.1 650.387 2717.56 942.083C3611.84 1201.6 3792.35 2077.06 4447.8 2078.33C5036.41 2077.24 5512.17 1374.67 5818.64 787.554" stroke="#F000FF" stroke-width="5" stroke-miterlimit="10"/>
<path d="M4.06836 107.624C1181.1 353.598 2827.52 2482.92 2717.99 3207.3C2646.11 3681.43 1516.51 3659.98 1222.97 3734.52C808.137 3839.41 1623.35 3400.46 1801.79 2894.33C2017.43 2281.67 1749.68 709.288 2716.1 990.077C3598.43 1245.05 3763.22 2142.68 4424.6 2162.68C5014.2 2180.86 5508.01 1491.75 5827.52 917.357" stroke="#F000FF" stroke-width="5" stroke-miterlimit="10"/>
<path d="M4.06836 160.165C1127.19 429.228 2705.95 2486.28 2623.83 3178.03C2569.92 3629.89 1507.08 3603.8 1239.33 3668.89C852.163 3761.79 1629.73 3342.01 1806.55 2858.25C2022.82 2266.4 1784.27 768.192 2714.76 1037.98C3585.04 1288.5 3733.92 2207.4 4401.24 2246.95C4991.83 2282.31 5503.79 1608.92 5836.33 1047.07" stroke="#F000FF" stroke-width="5" stroke-miterlimit="10"/>
<path d="M3.98438 212.523C1073.74 504.584 2584.3 2489.19 2529.67 3148.58C2493.73 3578.08 1497.74 3547.36 1255.78 3602.53C896.375 3684.34 1636.2 3283.66 1811.32 2822.16C2027.95 2251.22 1818.87 827.186 2713.32 1085.98C3571.66 1331.95 3704.73 2271.13 4378.16 2331.3C4969.55 2384.11 5499.84 1726 5845.23 1176.88" stroke="#F000FF" stroke-width="5" stroke-miterlimit="10"/>
<path d="M3.89551 264.882C1019.92 580.031 2462.64 2491.92 2435.42 3119.13C2417.45 3525.99 1488.4 3490.91 1272.13 3536.63C940.762 3606.62 1642.85 3225.21 1816.08 2786.07C2033.16 2235.95 1853.46 886.271 2711.98 1134.06C3558.18 1375.58 3675.44 2335.3 4354.89 2415.75C4947.27 2485.92 5495.98 1843.08 5854.12 1306.77" stroke="#F000FF" stroke-width="5" stroke-miterlimit="10"/>
<path d="M3.89551 317.332C966.1 655.478 2340.9 2493.29 2341.26 3089.77C2341.26 3473.64 1478.69 3434.28 1288.48 3470.64C984.968 3528.54 1649.5 3166.85 1820.84 2750.08C2038.46 2220.68 1887.96 945.084 2710.36 1182.15C3544.62 1419.03 3645.88 2399.3 4331.52 2500.19C4924.53 2587.46 5491.4 1960.52 5862.84 1436.67" stroke="#F000FF" stroke-width="5" stroke-miterlimit="10"/>
<path d="M3.80566 369.688C912.19 730.832 2218.97 2494.65 2247.09 3060.32C2265.06 3421 1469.89 3377.55 1304.92 3404.73C1029.17 3450.18 1656.42 3108.49 1826.05 2713.9C2044.39 2204.86 1922.55 1005.71 2709.55 1230.05C3531.32 1464.3 3617.04 2463.01 4308.88 2584.46C4903.06 2688.81 5487.89 2077.6 5872.27 1566.38" stroke="#F000FF" stroke-width="5" stroke-miterlimit="10"/>
<path d="M3.72168 422.049C858.376 806.281 2096.69 2495.47 2152.85 3030.87C2188.25 3368.01 1461 3320.74 1321.28 3338.74C1073.57 3370.74 1663.34 3050.14 1830.46 2677.99C2049.43 2190.05 1956.25 1064.98 2707.76 1278.14C3517.49 1508.03 3587.48 2526.65 4285.26 2668.9C4880.24 2790.16 5483.41 2194.86 5880.72 1696.28" stroke="#F000FF" stroke-width="5" stroke-miterlimit="10"/>
<path d="M3.72168 474.404C804.555 881.634 1974.04 2495.56 2058.68 3001.41C2111.16 3314.74 1452.19 3263.66 1337.64 3272.84C1118.04 3290.38 1670.08 2991.78 1835.23 2641.9C2055.18 2174.77 1991.21 1123.88 2706.77 1326.31C3504.46 1551.84 3558.64 2590.27 4262.44 2753.44C4858.32 2891.51 5479.72 2312.12 5890.07 1826.26" stroke="#F000FF" stroke-width="5" stroke-miterlimit="10"/>
<path d="M3.63184 526.763C750.735 957.082 1850.68 2495.1 1964.52 2971.96C2033.52 3261.2 1444.11 3206.39 1353.54 3206.94C1162.7 3208.03 1677 2933.51 1839.54 2605.82C2060.57 2159.41 2025.26 1183.06 2704.53 1374.31C3490.08 1595.56 3528.45 2653.63 4238.36 2837.79C4835.14 2992.32 5474.69 2429.29 5897.98 1956.07" stroke="#F000FF" stroke-width="5" stroke-miterlimit="10"/>
<path d="M3.54297 579.213C696.916 1032.44 1726.51 2494.1 1870.36 2942.6C1955.27 3207.39 1434.05 3163.76 1370.43 3140.94C1209.78 3159.12 1684.91 2875.24 1844.75 2569.82C2067.04 2144.14 2060.39 1242.05 2703.54 1422.4C3477.15 1639.19 3499.7 2716.9 4215.54 2922.24C4813.31 3093.59 5471.01 2546.55 5907.32 2085.96" stroke="#F000FF" stroke-width="5" stroke-miterlimit="10"/>
<path d="M3.54297 631.568C643.006 1107.88 1601.08 2492.74 1776.11 2913.15C1876.2 3153.49 1424.88 3108.4 1386.78 3075.04C1254.35 3083.4 1692.9 2817.07 1849.51 2533.73C2073.33 2128.87 2094.89 1301.04 2702.1 1470.21C3463.67 1682.64 3470.5 2779.89 4192.35 3006.41C4791.11 3194.3 5466.88 2663.54 5916.22 2215.58" stroke="#F000FF" stroke-width="5" stroke-miterlimit="10"/>
<path d="M3.45898 683.93C589.192 1183.24 1474.3 2491.47 1681.95 2883.7C1796.24 3099.68 1415.63 3053.04 1403.41 3009.05C1299.1 3007.5 1701.09 2758.89 1854.55 2497.74C2080.16 2113.6 2129.76 1359.95 2701.03 1518.48C3450.56 1726.46 3441.66 2843.16 4169.45 3091.04C4769.2 3295.29 5463.29 2780.98 5925.3 2345.66" stroke="#F000FF" stroke-width="5" stroke-miterlimit="10"/>
<path d="M3.35254 736.285C535.355 1258.68 1345.98 2490.65 1587.77 2854.24C1715.36 3046.13 1406.45 2997.68 1419.48 2943.14C1343.38 2931.6 1708.98 2700.9 1859.03 2461.38C2086.8 2097.78 2164.07 1418.58 2699.3 1566.2C3436.88 1769.72 3412.26 2905.78 4145.89 3175.12C4746.72 3395.82 5458.69 2897.88 5933.91 2475.19" stroke="#F000FF" stroke-width="5" stroke-miterlimit="10"/>
<path d="M3.35254 788.646C481.535 1334.04 1216.33 2491.1 1493.52 2824.8C1633.59 2993.23 1397.2 2942.33 1435.92 2877.24C1387.94 2855.79 1717.42 2643 1863.79 2425.66C2094.07 2083.69 2198.66 1477.66 2697.87 1614.56C3423.5 1813.45 3383.24 2968.96 4122.71 3259.84C4724.7 3496.73 5454.56 3015.32 5942.8 2605.36" stroke="#F000FF" stroke-width="5" stroke-miterlimit="10"/>
<path d="M3.2627 841.002C427.714 1409.49 1084.7 2493.37 1399.35 2795.34C1551.29 2941.24 1388.03 2886.97 1452.27 2811.25C1432.51 2779.89 1726.14 2585.37 1868.55 2389.57C2101.71 2069.06 2233.25 1536.47 2696.52 1662.37C3410.11 1856.62 3354.31 3031.32 4099.44 3344.01C4702.6 3597.08 5450.42 3132.31 5951.61 2734.99" stroke="#F000FF" stroke-width="5" stroke-miterlimit="10"/>
<path d="M3.17383 893.45C373.805 1484.84 952.62 2498.1 1305.19 2765.98C1468.81 2890.24 1378.78 2831.61 1468.63 2745.35C1477.07 2704.08 1735.21 2527.91 1872.95 2353.48C2109.62 2054.87 2267.58 1595.29 2694.72 1710.64C3396.36 1900.16 3325.11 3094.31 4075.9 3428.64C4680.23 3697.79 5446.02 3249.75 5960.14 2865.06" stroke="#F000FF" stroke-width="5" stroke-miterlimit="10"/>
<path d="M3.17383 945.811C319.985 1560.29 820.36 2505.28 1211.03 2736.53C1386.42 2840.34 1382.55 2790.16 1484.98 2679.45C1527.66 2633.27 1744.56 2470.38 1878.17 2317.48C2118.78 2041.33 2302.62 1653.92 2693.73 1758.73C3383.42 1943.43 3296.63 3156.85 4052.99 3513.09C4658.67 3798.33 5442.25 3366.92 5969.4 2994.96" stroke="#F000FF" stroke-width="5" stroke-miterlimit="10"/>
<path d="M3.08984 998.438C266.171 1635.92 688.826 2515.19 1117.23 2707.35C1305.11 2791.7 1366.65 2728.53 1501.88 2613.72C1569.72 2556.09 1754.63 2414.38 1883.38 2281.67C2128.76 2028.87 2337.66 1712.91 2692.75 1806.99C3370.58 1986.7 3268.33 3219.66 4030.26 3597.71C4637.29 3898.95 5438.57 3484.45 5978.66 3125.03" stroke="#F000FF" stroke-width="5" stroke-miterlimit="10"/>
<path d="M3 1050.53C212.351 1711.1 558.543 2526.37 1022.62 2677.63C1223.61 2743.17 1353.36 2668.54 1517.78 2547.55C1611.95 2478.2 1763.97 2357.94 1887.7 2245.4C2138.56 2017.15 2372.08 1770.73 2690.87 1854.54C3357.19 2028.15 3239.76 3280.57 4006.54 3681.62C4615.36 3998.04 5433.99 3601.08 5987.1 3254.39" stroke="#F000FF" stroke-width="5" stroke-miterlimit="10"/>
<path d="M3 1102.88C158.53 1786.45 429.878 2539.1 928.456 2648.18C1572.41 2789.53 2068.92 1742.45 2689.52 1902.8C3343.81 2071.96 3210.65 3344.2 3983.36 3766.24C4593.17 4099.48 5429.94 3718.61 5996 3384.46" stroke="#F000FF" stroke-width="5" stroke-miterlimit="10"/>
</svg>
