<svg width="6001" height="3898" viewBox="0 0 6001 3898" fill="none" xmlns="http://www.w3.org/2000/svg">
<path d="M4.26562 3C1289.76 202.979 3072.38 2475.92 2907.88 3266.29C2800 3784.42 1536.17 3772.79 1190.88 3866.23C720.01 3993.49 1611.59 3517.09 1793.18 2966.33C2008.93 2311.85 1681.44 591.302 2720.35 893.816C3627.04 1157.97 3823.37 2013.52 4473.31 1993.7" stroke="#D2D4DD" stroke-width="5" stroke-miterlimit="10"/>
<path d="M4.17676 55.4492C1235.74 278.426 2950.67 2479.65 2813.58 3236.93C2723.68 3733.06 1526.73 3716.52 1207.24 3800.51C764.329 3916.77 1617.88 3458.91 1797.94 2930.51C2013.69 2296.94 1715.96 650.387 2718.92 942.083C3613.64 1201.6 3794.24 2077.06 4450.03 2078.33C5038.93 2077.24 5514.92 1374.67 5821.56 787.554" stroke="#D2D4DD" stroke-width="5" stroke-miterlimit="10"/>
<path d="M4.06934 107.624C1181.69 353.598 2828.93 2482.92 2719.35 3207.3C2647.43 3681.43 1517.27 3659.98 1223.59 3734.52C808.54 3839.41 1624.16 3400.46 1802.69 2894.33C2018.44 2281.67 1750.55 709.288 2717.46 990.077C3600.23 1245.05 3765.1 2142.68 4426.82 2162.68C5016.71 2180.86 5510.77 1491.75 5830.44 917.357" stroke="#D2D4DD" stroke-width="5" stroke-miterlimit="10"/>
<path d="M4.06934 160.165C1127.76 429.228 2707.3 2486.28 2625.14 3178.03C2571.2 3629.89 1507.83 3603.8 1239.95 3668.89C852.589 3761.79 1630.54 3342.01 1807.45 2858.25C2023.83 2266.4 1785.16 768.192 2716.11 1037.98C3586.84 1288.5 3735.79 2207.4 4403.44 2246.95C4994.32 2282.31 5506.55 1608.92 5839.25 1047.07" stroke="#D2D4DD" stroke-width="5" stroke-miterlimit="10"/>
<path d="M3.98535 212.523C1074.28 504.584 2585.59 2489.19 2530.94 3148.58C2494.98 3578.08 1498.49 3547.36 1256.4 3602.53C896.823 3684.34 1637.02 3283.66 1812.22 2822.16C2028.96 2251.22 1819.78 827.186 2714.68 1085.98C3573.45 1331.95 3706.58 2271.13 4380.35 2331.3C4972.04 2384.11 5502.6 1726 5848.15 1176.88" stroke="#D2D4DD" stroke-width="5" stroke-miterlimit="10"/>
<path d="M3.89551 264.882C1020.43 580.031 2463.87 2491.92 2436.64 3119.13C2418.66 3525.99 1489.14 3490.91 1272.76 3536.63C941.231 3606.62 1643.67 3225.21 1816.99 2786.07C2034.18 2235.95 1854.39 886.271 2713.33 1134.06C3559.96 1375.58 3677.28 2335.3 4357.06 2415.75C4949.74 2485.92 5498.73 1843.08 5857.05 1306.77" stroke="#D2D4DD" stroke-width="5" stroke-miterlimit="10"/>
<path d="M3.89551 317.332C966.582 655.478 2342.07 2493.29 2342.43 3089.77C2342.43 3473.64 1479.43 3434.28 1289.13 3470.64C985.46 3528.54 1650.32 3166.85 1821.75 2750.08C2039.48 2220.68 1888.9 945.084 2711.71 1182.15C3546.39 1419.03 3647.7 2399.3 4333.69 2500.19C4927 2587.46 5494.15 1960.52 5865.77 1436.67" stroke="#D2D4DD" stroke-width="5" stroke-miterlimit="10"/>
<path d="M3.80566 369.688C912.645 730.832 2220.08 2494.65 2248.22 3060.32C2266.19 3421 1470.62 3377.55 1305.58 3404.73C1029.69 3450.18 1657.25 3108.49 1826.97 2713.9C2045.41 2204.86 1923.51 1005.71 2710.91 1230.05C3533.09 1464.3 3618.85 2463.01 4311.04 2584.46C4905.51 2688.81 5490.64 2077.6 5875.21 1566.38" stroke="#D2D4DD" stroke-width="5" stroke-miterlimit="10"/>
<path d="M3.72168 422.049C858.803 806.281 2097.74 2495.47 2153.92 3030.87C2189.34 3368.01 1461.73 3320.74 1321.94 3338.74C1074.1 3370.74 1664.17 3050.14 1831.38 2677.99C2050.45 2190.05 1957.23 1064.98 2709.11 1278.14C3519.25 1508.03 3589.28 2526.65 4287.4 2668.9C4882.69 2790.16 5486.15 2194.86 5883.67 1696.28" stroke="#D2D4DD" stroke-width="5" stroke-miterlimit="10"/>
<path d="M3.72168 474.404C804.956 881.634 1975.03 2495.56 2059.71 3001.41C2112.21 3314.74 1452.92 3263.66 1338.3 3272.84C1118.6 3290.38 1670.92 2991.78 1836.14 2641.9C2056.21 2174.77 1992.2 1123.88 2708.12 1326.31C3506.21 1551.84 3560.42 2590.27 4264.57 2753.44C4860.75 2891.51 5482.47 2312.12 5893.02 1826.26" stroke="#D2D4DD" stroke-width="5" stroke-miterlimit="10"/>
<path d="M3.63184 526.763C751.109 957.082 1851.6 2495.1 1965.5 2971.96C2034.54 3261.2 1444.83 3206.39 1354.22 3206.94C1163.28 3208.03 1677.84 2933.51 1840.46 2605.82C2061.6 2159.41 2026.27 1183.06 2705.88 1374.31C3491.83 1595.56 3530.21 2653.63 4240.48 2837.79C4837.56 2992.32 5477.43 2429.29 5900.93 1956.07" stroke="#D2D4DD" stroke-width="5" stroke-miterlimit="10"/>
<path d="M3.54297 579.213C697.263 1032.44 1727.37 2494.1 1871.29 2942.6C1956.24 3207.39 1434.76 3163.76 1371.12 3140.94C1210.38 3159.12 1685.75 2875.24 1845.67 2569.82C2068.07 2144.14 2061.42 1242.05 2704.89 1422.4C3478.89 1639.19 3501.45 2716.9 4217.64 2922.24C4815.72 3093.59 5473.75 2546.55 5910.28 2085.96" stroke="#D2D4DD" stroke-width="5" stroke-miterlimit="10"/>
<path d="M3.54297 631.568C643.326 1107.88 1601.88 2492.74 1776.99 2913.15C1877.14 3153.49 1425.59 3108.4 1387.48 3075.04C1254.97 3083.4 1693.75 2817.07 1850.44 2533.73C2074.37 2128.87 2095.94 1301.04 2703.45 1470.21C3465.4 1682.64 3472.23 2779.89 4194.45 3006.41C4793.51 3194.3 5469.61 2663.54 5919.18 2215.58" stroke="#D2D4DD" stroke-width="5" stroke-miterlimit="10"/>
<path d="M3.45898 683.93C589.485 1183.24 1475.04 2491.47 1682.79 2883.7C1797.13 3099.68 1416.34 3053.04 1404.11 3009.05C1299.75 3007.5 1701.94 2758.89 1855.48 2497.74C2081.2 2113.6 2130.83 1359.95 2702.38 1518.48C3452.28 1726.46 3443.38 2843.16 4171.53 3091.04C4771.58 3295.29 5466.02 2780.98 5928.26 2345.66" stroke="#D2D4DD" stroke-width="5" stroke-miterlimit="10"/>
<path d="M3.35254 736.285C535.621 1258.68 1346.65 2490.65 1588.56 2854.24C1716.21 3046.13 1407.15 2997.68 1420.19 2943.14C1344.05 2931.6 1709.83 2700.9 1859.96 2461.38C2087.84 2097.78 2165.15 1418.58 2700.65 1566.2C3438.6 1769.72 3413.97 2905.78 4147.96 3175.12C4749.09 3395.82 5461.42 2897.88 5936.88 2475.19" stroke="#D2D4DD" stroke-width="5" stroke-miterlimit="10"/>
<path d="M3.35254 788.646C481.774 1334.04 1216.94 2491.1 1494.26 2824.8C1634.41 2993.23 1397.89 2942.33 1436.64 2877.24C1388.64 2855.79 1718.28 2643 1864.72 2425.66C2095.12 2083.69 2199.76 1477.66 2699.22 1614.56C3425.21 1813.45 3384.93 2968.96 4124.77 3259.84C4727.07 3496.73 5457.28 3015.32 5945.77 2605.36" stroke="#D2D4DD" stroke-width="5" stroke-miterlimit="10"/>
<path d="M3.2627 841.002C427.927 1409.49 1085.24 2493.37 1400.05 2795.34C1552.06 2941.24 1388.73 2886.97 1453 2811.25C1433.22 2779.89 1727 2585.37 1869.48 2389.57C2102.76 2069.06 2234.37 1536.47 2697.87 1662.37C3411.81 1856.62 3355.99 3031.32 4101.49 3344.01C4704.95 3597.08 5453.15 3132.31 5954.58 2734.99" stroke="#D2D4DD" stroke-width="5" stroke-miterlimit="10"/>
<path d="M3.17383 893.45C373.991 1484.84 953.095 2498.1 1305.84 2765.98C1469.54 2890.24 1379.47 2831.61 1469.36 2745.35C1477.81 2704.08 1736.08 2527.91 1873.89 2353.48C2110.67 2054.87 2268.71 1595.29 2696.07 1710.64C3398.06 1900.16 3326.77 3094.31 4077.94 3428.64C4682.57 3697.79 5448.75 3249.75 5963.13 2865.06" stroke="#D2D4DD" stroke-width="5" stroke-miterlimit="10"/>
<path d="M3.17383 945.811C320.144 1560.29 820.769 2505.28 1211.63 2736.53C1387.11 2840.34 1383.24 2790.16 1485.72 2679.45C1528.42 2633.27 1745.43 2470.38 1879.1 2317.48C2119.84 2041.33 2303.77 1653.92 2695.08 1758.73C3385.12 1943.43 3298.28 3156.85 4055.01 3513.09C4661 3798.33 5444.97 3366.92 5972.38 2994.96" stroke="#D2D4DD" stroke-width="5" stroke-miterlimit="10"/>
<path d="M3.08984 998.438C266.303 1635.92 689.169 2515.19 1117.79 2707.35C1305.76 2791.7 1367.34 2728.53 1502.63 2613.72C1570.5 2556.09 1755.5 2414.38 1884.32 2281.67C2129.83 2028.87 2338.83 1712.91 2694.1 1806.99C3372.27 1986.7 3269.97 3219.66 4032.28 3597.71C4639.61 3898.95 5441.29 3484.45 5981.65 3125.03" stroke="#D2D4DD" stroke-width="5" stroke-miterlimit="10"/>
<path d="M3 1050.53C212.455 1711.1 558.821 2526.37 1023.13 2677.63C1224.22 2743.17 1354.03 2668.54 1518.54 2547.55C1612.75 2478.2 1764.85 2357.94 1888.64 2245.4C2139.63 2017.15 2373.26 1770.73 2692.21 1854.54C3358.87 2028.15 3241.38 3280.57 4008.54 3681.62C4617.67 3998.04 5436.71 3601.08 5990.1 3254.39" stroke="#D2D4DD" stroke-width="5" stroke-miterlimit="10"/>
<path d="M3 1102.88C158.608 1786.45 430.091 2539.1 928.919 2648.18C1573.2 2789.53 2069.96 1742.45 2690.86 1902.8C3345.48 2071.96 3212.25 3344.2 3985.35 3766.24C4595.47 4099.48 5432.66 3718.61 5999 3384.46" stroke="#D2D4DD" stroke-width="5" stroke-miterlimit="10"/>
</svg>
