<svg width="14" height="14" viewBox="0 0 14 14" fill="none" xmlns="http://www.w3.org/2000/svg">
<path d="M7.58334 1.16683C7.58334 0.844663 7.32218 0.583496 7.00001 0.583496C6.67784 0.583496 6.41668 0.844663 6.41668 1.16683V2.3335C6.41668 2.65566 6.67784 2.91683 7.00001 2.91683C7.32218 2.91683 7.58334 2.65566 7.58334 2.3335V1.16683Z" fill="#FEFEFE"/>
<path d="M7.58334 11.6668C7.58334 11.3447 7.32218 11.0835 7.00001 11.0835C6.67784 11.0835 6.41668 11.3447 6.41668 11.6668V12.8335C6.41668 13.1557 6.67784 13.4168 7.00001 13.4168C7.32218 13.4168 7.58334 13.1557 7.58334 12.8335V11.6668Z" fill="#FEFEFE"/>
<path d="M0.583344 7.00016C0.583344 6.678 0.844511 6.41683 1.16668 6.41683H2.33334C2.65551 6.41683 2.91668 6.678 2.91668 7.00016C2.91668 7.32233 2.65551 7.5835 2.33334 7.5835H1.16668C0.844511 7.5835 0.583344 7.32233 0.583344 7.00016Z" fill="#FEFEFE"/>
<path d="M3.27077 2.44596C3.04296 2.21815 2.67361 2.21815 2.44581 2.44596C2.218 2.67377 2.218 3.04311 2.44581 3.27092L3.27077 4.09588C3.49857 4.32368 3.86792 4.32368 4.09572 4.09588C4.32353 3.86807 4.32353 3.49872 4.09572 3.27092L3.27077 2.44596Z" fill="#FEFEFE"/>
<path d="M11.5542 2.44596C11.782 2.67377 11.782 3.04311 11.5542 3.27092L10.7293 4.09588C10.5015 4.32368 10.1321 4.32368 9.90431 4.09588C9.67651 3.86807 9.67651 3.49872 9.90431 3.27092L10.7293 2.44596C10.9571 2.21815 11.3264 2.21815 11.5542 2.44596Z" fill="#FEFEFE"/>
<path d="M4.09572 10.7318C4.32353 10.504 4.32353 10.1346 4.09572 9.90682C3.86792 9.67901 3.49857 9.67901 3.27077 9.90682L2.44581 10.7318C2.218 10.9596 2.218 11.3289 2.44581 11.5567C2.67361 11.7845 3.04296 11.7845 3.27077 11.5567L4.09572 10.7318Z" fill="#FEFEFE"/>
<path d="M9.90431 9.90682C10.1321 9.67901 10.5015 9.67901 10.7293 9.90682L11.5542 10.7318C11.782 10.9596 11.782 11.3289 11.5542 11.5567C11.3264 11.7845 10.9571 11.7845 10.7293 11.5567L9.90431 10.7318C9.67651 10.504 9.67651 10.1346 9.90431 9.90682Z" fill="#FEFEFE"/>
<path d="M11.6667 6.41683C11.3445 6.41683 11.0833 6.678 11.0833 7.00016C11.0833 7.32233 11.3445 7.5835 11.6667 7.5835H12.8333C13.1555 7.5835 13.4167 7.32233 13.4167 7.00016C13.4167 6.678 13.1555 6.41683 12.8333 6.41683H11.6667Z" fill="#FEFEFE"/>
<path d="M7.00001 3.50016C5.06701 3.50016 3.50001 5.06717 3.50001 7.00016C3.50001 8.93316 5.06701 10.5002 7.00001 10.5002C8.93301 10.5002 10.5 8.93316 10.5 7.00016C10.5 5.06717 8.93301 3.50016 7.00001 3.50016Z" fill="#FEFEFE"/>
</svg>
